<svg id="iconos_titular" data-name="iconos titular" xmlns="http://www.w3.org/2000/svg" width="57.263" height="212.971" viewBox="0 0 57.263 212.971">
  <g id="home" transform="translate(0 0)">
    <path id="Path_6149" data-name="Path 6149" d="M66.911,452.209a28.631,28.631,0,1,1-28.631-28.631,28.631,28.631,0,0,1,28.631,28.631" transform="translate(-9.648 -423.578)" fill="#f73354"/>
    <path id="Path_6151" data-name="Path 6151" d="M35,458.9q-1.071,2.2-1.923,4.5a2.628,2.628,0,0,0-.219,1.639c.364,1.2,2.145,1.391,2.7,2.52a3.034,3.034,0,0,1,.193,1.409q-.136,6.122-.273,12.245c2.352-.5,4.775.123,7.171.317a40.127,40.127,0,0,0,4.086.053l18.283-.38a24.956,24.956,0,0,1-.34-5.517q.05-3.927.1-7.854a1.187,1.187,0,0,1,.135-.652c.225-.337.7-.35,1.089-.462a2.514,2.514,0,0,0,1.545-2.675,7.342,7.342,0,0,0-1.268-3.067l-1.648-2.721a.649.649,0,0,0-.69-.39,80.01,80.01,0,0,0-9.659.184,42.712,42.712,0,0,1-4.432.241c-1.478-.036-2.946-.266-4.424-.3-2.215-.047-4.426.351-6.638.241a9.883,9.883,0,0,0-2.285,0,2.307,2.307,0,0,0-1.782,1.279" transform="translate(-21.562 -441.194)" fill="#fff"/>
    <path id="Path_6152" data-name="Path 6152" d="M35.852,470.744H32.407a2.939,2.939,0,0,0,4.666,2.382,2.933,2.933,0,0,1-1.22-2.382" transform="translate(-21.363 -447.855)" fill="#e64859"/>
    <path id="Path_6153" data-name="Path 6153" d="M47.981,470.892H44.536a2.939,2.939,0,0,0,4.666,2.382,2.933,2.933,0,0,1-1.22-2.382" transform="translate(-27.606 -447.932)" fill="#e64859"/>
    <path id="Path_6154" data-name="Path 6154" d="M60.111,470.892H56.666a2.939,2.939,0,0,0,4.666,2.382,2.933,2.933,0,0,1-1.22-2.382" transform="translate(-33.849 -447.932)" fill="#e64859"/>
    <path id="Path_6155" data-name="Path 6155" d="M72.241,470.892H68.8a2.939,2.939,0,0,0,4.666,2.382,2.933,2.933,0,0,1-1.22-2.382" transform="translate(-40.093 -447.932)" fill="#e64859"/>
    <path id="Path_6156" data-name="Path 6156" d="M84.371,470.892H80.926a2.939,2.939,0,0,0,4.666,2.382,2.933,2.933,0,0,1-1.22-2.382" transform="translate(-46.336 -447.932)" fill="#e64859"/>
    <path id="Path_6157" data-name="Path 6157" d="M96.2,470.892H92.759a2.939,2.939,0,0,0,4.666,2.382,2.933,2.933,0,0,1-1.22-2.382" transform="translate(-52.427 -447.932)" fill="#e64859"/>
    <path id="Path_6158" data-name="Path 6158" d="M41.5,473.85v15.936H38.414V475.574" transform="translate(-24.455 -449.454)" fill="#e64859"/>
    <rect id="Rectangle_2475" data-name="Rectangle 2475" width="3.082" height="11.772" transform="translate(19.846 28.559)" fill="#e64859"/>
    <path id="Path_6159" data-name="Path 6159" d="M36.1,458.466h3.082l-3.015,5.886H33.089Z" transform="translate(-21.714 -441.536)" fill="#e64859"/>
    <rect id="Rectangle_2476" data-name="Rectangle 2476" width="3.082" height="5.887" transform="translate(28.747 28.559)" fill="#e64859"/>
    <path id="Path_6160" data-name="Path 6160" d="M67.546,463.843h0c0-.009,0-.018,0-.028h0a.55.55,0,0,0-.058-.254L64.544,457.6a.573.573,0,0,0-.515-.32H34.741a.575.575,0,0,0-.515.32l-2.943,5.958a.576.576,0,0,0-.058.254h0v.028h0a3.522,3.522,0,0,0,2.943,3.442v13.4H31.774v1.149H66.948v-1.149H64.6v-13.4a3.522,3.522,0,0,0,2.943-3.442M41.2,470.2H45.8v10.408H41.2Zm5.169-1.148H40.627a.574.574,0,0,0-.574.574v10.983H35.315V467.285a3.525,3.525,0,0,0,2.369-1.547,3.514,3.514,0,0,0,5.887,0,3.513,3.513,0,0,0,5.885,0,3.514,3.514,0,0,0,5.887,0,3.513,3.513,0,0,0,5.814.105,3.523,3.523,0,0,0,2.3,1.442v13.328H46.945V469.63a.574.574,0,0,0-.575-.574m14.19-4.666.009.052a2.365,2.365,0,0,1-4.578-.052Zm-22.228,0h4.591a2.365,2.365,0,0,1-4.591,0m5.886,0h4.592a2.366,2.366,0,0,1-4.592,0m5.887,0H54.7a2.365,2.365,0,0,1-4.591,0m13.924,1.8a2.372,2.372,0,0,1-2.282-1.743c0-.018.007-.035.01-.052h4.568a2.371,2.371,0,0,1-2.3,1.8M35.1,458.431H63.673l2.375,4.81H32.722Zm-2.653,5.959h4.591a2.365,2.365,0,0,1-4.591,0" transform="translate(-20.754 -440.927)" fill="#15127f"/>
    <path id="Path_6161" data-name="Path 6161" d="M68.039,488.281H76.8a.575.575,0,0,0,.575-.574V481.82a.575.575,0,0,0-.575-.574H68.039a.574.574,0,0,0-.575.574v5.887a.574.574,0,0,0,.575.574m.575-5.887h7.609v4.738H68.613Z" transform="translate(-39.407 -453.261)" fill="#15127f"/>
  </g>
  <g id="web" transform="translate(0 78.477)">
    <path id="Path_6150" data-name="Path 6150" d="M253.325,426a26.2,26.2,0,1,1-26.2,26.2,26.235,26.235,0,0,1,26.2-26.2m0-2.426a28.631,28.631,0,1,0,28.631,28.631,28.631,28.631,0,0,0-28.631-28.631" transform="translate(-224.694 -423.578)" fill="#f73354"/>
    <path id="Path_6162" data-name="Path 6162" d="M257.479,469.352q2.2.081,4.4.021.064,4.327.353,8.647c1.773-.5,3.653-.022,5.481.214,5.921.764,11.943-1.078,17.869-.36a32.7,32.7,0,0,0,.044-6.625,54.573,54.573,0,0,1,.294-6.024q.036-.414.071-.829a21.9,21.9,0,0,0,.033-4.371,10.1,10.1,0,0,0-.47-2.106c-.076-.219-.089-.2-.314-.209-.186-.009-.372-.024-.559-.027-.373-.007-.747.005-1.12.015-2.772.071-5.545-.006-8.317-.082-1.1-.031-2.194-.088-3.29-.021a75.505,75.505,0,0,1-9.112-.385,20.526,20.526,0,0,0-3.349.01c-.716.074-2.054.063-2.24.918a16.9,16.9,0,0,0-.046,3.391q0,1.831.063,3.66.066,2.083.2,4.163" transform="translate(-241.398 -440.856)" fill="#fff"/>
    <rect id="Rectangle_2477" data-name="Rectangle 2477" width="3.082" height="3.363" transform="translate(30.218 37.105)" fill="#e64859"/>
    <rect id="Rectangle_2478" data-name="Rectangle 2478" width="3.082" height="20.038" transform="translate(16.052 17.067)" fill="#e64859"/>
    <path id="Path_6163" data-name="Path 6163" d="M285.78,496.267a.561.561,0,1,1,.561.56.56.56,0,0,1-.561-.56" transform="translate(-256.136 -460.704)" fill="#e64859"/>
    <rect id="Rectangle_2479" data-name="Rectangle 2479" width="8.055" height="12.203" transform="translate(12.767 28.272)" fill="#fff"/>
    <path id="Path_6164" data-name="Path 6164" d="M258.447,494.006h-8.055a.574.574,0,0,1-.575-.575v-12.2a.575.575,0,0,1,.575-.575h8.055a.575.575,0,0,1,.574.575v12.2a.574.574,0,0,1-.574.575m-7.481-1.149h6.906V481.8h-6.906Z" transform="translate(-237.626 -452.956)" fill="#15127f"/>
    <rect id="Rectangle_2480" data-name="Rectangle 2480" width="3.082" height="12.035" transform="translate(12.907 28.44)" fill="#e64859"/>
    <path id="Path_6165" data-name="Path 6165" d="M258.146,503.45a.561.561,0,1,1,.56.56.56.56,0,0,1-.56-.56" transform="translate(-241.913 -464.402)" fill="#15127f"/>
    <path id="Path_6166" data-name="Path 6166" d="M282.122,456.988H253.537a.574.574,0,0,0-.575.574v10.912h-2.57a.575.575,0,0,0-.575.575v12.2a.574.574,0,0,0,.575.573h8.055a.573.573,0,0,0,.574-.573v-2.8h8.235v2.214h-6.432v1.149h14.012v-1.149H268.4v-2.214h13.718a.575.575,0,0,0,.574-.574V457.562a.574.574,0,0,0-.574-.574m-24.249,23.689h-6.906v-1.756h6.906Zm0-6.314v3.41h-6.906V471.6h6.906Zm0-3.912h-6.906v-.829h6.906Zm23.675,6.855H259.021v-1.794h19.6v-1.149h-19.6v-5.314a.574.574,0,0,0-.574-.575h-4.335V458.136h27.436Z" transform="translate(-237.626 -440.775)" fill="#15127f"/>
  </g>
  <rect id="Rectangle_2483" data-name="Rectangle 2483" width="23.668" height="3.737" transform="translate(30.211 56.055) rotate(90)" fill="#f73354"/>
  <g id="app" transform="translate(0 155.709)">
    <path id="Path_6167" data-name="Path 6167" d="M476.9,463.338a.543.543,0,0,1,.889-.119l1.1.821a1.378,1.378,0,0,1,.552.63,1.521,1.521,0,0,1-.039.75,7.164,7.164,0,0,0-.106,2.193,1.584,1.584,0,0,0,.694,1.336,1.748,1.748,0,0,0,.675.124l2.715.132.117,3.344,1.988-1.685q3.618,3.276,6.927,6.874a.26.26,0,0,1,.006.429q-1.5,1.732-3.11,3.364c-.492.5-1.093.906-1.617,1.375a13.376,13.376,0,0,0-1.5,1.55c-.362.448-.683.928-1.064,1.359a12.929,12.929,0,0,1-1.937,1.68.776.776,0,0,1-.293.161c-.3.064-.543-.215-.724-.459-2.544-3.427-6.432-5.64-9.113-8.962a20.181,20.181,0,0,0-1.525-1.831c-.69-.673-1.515-1.184-2.229-1.828-.508-.457-1.638-1.526-.981-2.215.375-.393.754-.782,1.128-1.176l4.775-5.028,2.678-2.819" transform="translate(-454.327 -443.889)" fill="#fff"/>
    <rect id="Rectangle_2481" data-name="Rectangle 2481" width="2.23" height="21.4" transform="translate(13.471 28.821) rotate(-45)" fill="#e64859"/>
    <path id="Path_6168" data-name="Path 6168" d="M510.082,451.662h-18.8v11.513h4.159v3.781l3.781-3.781h10.864Z" transform="translate(-466.245 -438.033)" fill="#fff"/>
    <path id="Path_6169" data-name="Path 6169" d="M494.949,466.928a.454.454,0,0,1-.176-.035.46.46,0,0,1-.285-.426v-3.321h-3.7a.461.461,0,0,1-.461-.461V451.173a.461.461,0,0,1,.461-.461h18.8a.461.461,0,0,1,.461.461v11.513a.461.461,0,0,1-.461.461H498.921l-3.646,3.646a.461.461,0,0,1-.326.135m-3.7-4.7h3.7a.461.461,0,0,1,.461.461v2.67l2.995-3a.461.461,0,0,1,.326-.135h10.4V451.634H491.251Z" transform="translate(-465.757 -437.545)" fill="#15127f"/>
    <rect id="Rectangle_2482" data-name="Rectangle 2482" width="2.018" height="11.33" transform="translate(25.124 13.812)" fill="#e64859"/>
    <path id="Path_6170" data-name="Path 6170" d="M499.794,474.7h2.018v1.745l-2.018,2.067Z" transform="translate(-470.629 -449.89)" fill="#e64859"/>
    <path id="Path_6171" data-name="Path 6171" d="M509.593,450.712h-18.8a.461.461,0,0,0-.461.461v11.513a.461.461,0,0,0,.461.461h3.7v3.321a.46.46,0,0,0,.284.426.453.453,0,0,0,.176.035.459.459,0,0,0,.326-.135l3.646-3.646h10.673a.461.461,0,0,0,.461-.461V451.173a.461.461,0,0,0-.461-.461m-.46,11.513h-10.4a.46.46,0,0,0-.326.135l-3,3v-2.67a.461.461,0,0,0-.461-.461h-3.7V451.634h17.883Z" transform="translate(-465.757 -437.545)" fill="#15127f"/>
    <path id="Path_6172" data-name="Path 6172" d="M487.623,473.561l-9.3,9.3-8.4-8.4L478,466.394v-1.3l-8.723,8.723-1.792-1.792,9.3-9.3L478,463.933v-1.3l-.888-.888a.461.461,0,0,0-.652,0L466.5,471.7a.459.459,0,0,0,0,.651l15.081,15.081a.461.461,0,0,0,.652,0l9.953-9.953a.46.46,0,0,0,0-.651l-6.835-6.835-.652.651Zm3.589,3.589-9.3,9.3-2.937-2.937,9.3-9.3Z" transform="translate(-453.424 -443.153)" fill="#15127f"/>
    <path id="Path_6173" data-name="Path 6173" d="M504.669,499.908a.979.979,0,1,0-1.385,0,.979.979,0,0,0,1.385,0" transform="translate(-472.278 -462.006)" fill="#15127f"/>
    <path id="Path_6174" data-name="Path 6174" d="M509.947,463.57a.391.391,0,0,1-.392-.391v-.089a1.242,1.242,0,0,1-.658-.447,1.814,1.814,0,0,1-.3-1.106v-.15a.392.392,0,0,1,.392-.392h.37l-.167-.168a1.688,1.688,0,0,1-.545-1.213,1.315,1.315,0,0,1,.18-.682,1.415,1.415,0,0,1,.456-.471,1.61,1.61,0,0,1,.272-.141v-.036a.392.392,0,0,1,.392-.392h.473a.392.392,0,0,1,.392.392v.013a1.31,1.31,0,0,1,.632.46,1.786,1.786,0,0,1,.322,1.1.392.392,0,0,1-.392.392h-.405l.281.278a1.945,1.945,0,0,1,.365.505,1.56,1.56,0,0,1,.165.717,1.344,1.344,0,0,1-.394,1,1.492,1.492,0,0,1-.573.349v.088a.391.391,0,0,1-.392.391Z" transform="translate(-475.161 -441.239)" fill="#fff"/>
    <path id="Path_6175" data-name="Path 6175" d="M508.653,463.562a.523.523,0,0,1-.523-.517,1.338,1.338,0,0,1-.633-.463,1.938,1.938,0,0,1-.323-1.185v-.15a.522.522,0,0,1,.522-.523h.058a1.79,1.79,0,0,1-.531-1.251,1.444,1.444,0,0,1,.2-.749,1.547,1.547,0,0,1,.5-.514,1.747,1.747,0,0,1,.215-.117.522.522,0,0,1,.52-.472h.473a.522.522,0,0,1,.517.444,1.447,1.447,0,0,1,.612.473,1.914,1.914,0,0,1,.347,1.173.522.522,0,0,1-.522.522h-.087l.055.054a2.081,2.081,0,0,1,.389.538,1.687,1.687,0,0,1,.179.776,1.485,1.485,0,0,1-.434,1.094,1.611,1.611,0,0,1-.534.348.522.522,0,0,1-.522.518Z" transform="translate(-474.427 -441.101)" fill="#fff"/>
    <path id="Path_6176" data-name="Path 6176" d="M514.421,460.43a2.513,2.513,0,0,0-.194-.319.784.784,0,0,0,.388-.676,2.17,2.17,0,0,0-.4-1.33,1.7,1.7,0,0,0-.6-.5.783.783,0,0,0-.738-.52h-.263a1.048,1.048,0,0,1,.253.333,1.952,1.952,0,0,1,.6.533,2.422,2.422,0,0,1,.451,1.486,1.041,1.041,0,0,1-.3.734c.028.047.054.095.079.144a2.209,2.209,0,0,1,.236,1.014,2,2,0,0,1-.592,1.468,2.17,2.17,0,0,1-.44.33,1.05,1.05,0,0,1-.294.423h.265a.784.784,0,0,0,.762-.6,1.866,1.866,0,0,0,.477-.339,1.743,1.743,0,0,0,.512-1.281,1.946,1.946,0,0,0-.207-.9" transform="translate(-477.227 -440.823)" fill="#e64859"/>
    <path id="Path_6177" data-name="Path 6177" d="M510.269,459.891a1.043,1.043,0,0,0,.3-.734,2.423,2.423,0,0,0-.451-1.486,1.959,1.959,0,0,0-.6-.533,1.045,1.045,0,0,0-.943-.594H508.1a1.044,1.044,0,0,0-.963.639l-.054.034a2.062,2.062,0,0,0-.663.687,1.957,1.957,0,0,0-.271,1.016,2.213,2.213,0,0,0,.258,1.033,1.042,1.042,0,0,0-.307.741v.15a2.472,2.472,0,0,0,.425,1.494,1.824,1.824,0,0,0,.6.518,1.045,1.045,0,0,0,.977.674h.473a1.046,1.046,0,0,0,.981-.684,2.161,2.161,0,0,0,.44-.33,2,2,0,0,0,.592-1.468,2.212,2.212,0,0,0-.236-1.014c-.025-.049-.052-.1-.079-.143m-1.006,1.877a1.144,1.144,0,0,1-.692.316v.4H508.1v-.407a1.006,1.006,0,0,1-.735-.361,1.457,1.457,0,0,1-.222-.874v-.15h.951v.115q0,.421.265.421a.2.2,0,0,0,.168-.071.271.271,0,0,0,.053-.167.5.5,0,0,0-.172-.345l-.785-.789a1.307,1.307,0,0,1-.431-.937.929.929,0,0,1,.124-.482,1.029,1.029,0,0,1,.33-.342,1.237,1.237,0,0,1,.452-.176v-.331h.473v.322a1,1,0,0,1,.711.386,1.4,1.4,0,0,1,.244.86h-.976v-.178a.245.245,0,0,0-.063-.181.226.226,0,0,0-.167-.062.235.235,0,0,0-.172.057.208.208,0,0,0-.057.153q0,.137.271.4l.765.754a1.544,1.544,0,0,1,.291.4,1.165,1.165,0,0,1,.121.539.958.958,0,0,1-.276.72" transform="translate(-473.874 -440.546)" fill="#15127f"/>
    <path id="Path_6178" data-name="Path 6178" d="M468.325,426a26.2,26.2,0,1,1-26.205,26.2A26.235,26.235,0,0,1,468.325,426m0-2.426a28.631,28.631,0,1,0,28.631,28.631,28.631,28.631,0,0,0-28.631-28.631" transform="translate(-439.694 -423.578)" fill="#f73354"/>
  </g>
  <rect id="Rectangle_2484" data-name="Rectangle 2484" width="23.668" height="3.737" transform="translate(30.211 133.287) rotate(90)" fill="#f73354"/>
</svg>
