<svg id="Seguridad" xmlns="http://www.w3.org/2000/svg" xmlns:xlink="http://www.w3.org/1999/xlink" width="22" height="22" viewBox="0 0 22 22">
  <defs>
    <clipPath id="clip-path">
      <rect id="Rectangle_78" data-name="Rectangle 78" width="22" height="22" fill="none"/>
    </clipPath>
  </defs>
  <g id="Group_38" data-name="Group 38" clip-path="url(#clip-path)">
    <path id="Path_88" data-name="Path 88" d="M28.979,10.314a6.175,6.175,0,0,0-7.035,6.112V17.2h1.714v-.772a6.172,6.172,0,0,1,5.32-6.112" transform="translate(-17.116 -7.998)" fill="none"/>
    <rect id="Rectangle_77" data-name="Rectangle 77" width="1.841" height="10.335" transform="translate(4.8 9.42)" fill="none"/>
    <path id="Path_89" data-name="Path 89" d="M41.227,55.215a1.318,1.318,0,0,1,.847-1.23,1.318,1.318,0,0,0-1.313,2.246l-1.17,2.809h.943l1.17-2.809a1.316,1.316,0,0,1-.478-1.016" transform="translate(-30.882 -42.039)" fill="none"/>
    <path id="Path_90" data-name="Path 90" d="M33.073,15.64h-12v-.429a5.83,5.83,0,0,1,11.591-.893l.678-.1a6.516,6.516,0,0,0-12.954,1V26.527a.343.343,0,0,0,.343.343H33.073a.343.343,0,0,0,.343-.343V15.983a.343.343,0,0,0-.343-.343M32.73,26.184H21.072V16.325H32.73Z" transform="translate(-15.901 -6.783)" fill="#fff"/>
    <path id="Path_91" data-name="Path 91" d="M38.375,58.167H42.4a.343.343,0,0,0,.317-.475L41.634,55.1a1.662,1.662,0,1,0-2.494,0l-1.081,2.594a.343.343,0,0,0,.316.475m1.487-3.02a.343.343,0,0,0-.1-.4.976.976,0,1,1,1.244,0,.343.343,0,0,0-.1.4l.972,2.334H38.89Z" transform="translate(-29.665 -40.824)" fill="#fff"/>
    <path id="Path_6062" data-name="Path 6062" d="M76.872,35.2s-.029-1.65-.083-1.93-.695-.026-.695-.026a13.575,13.575,0,0,1,.091,2.143C76.523,35.318,76.872,35.2,76.872,35.2Z" transform="translate(-59.353 -25.852)" fill="#fff"/>
  </g>
</svg>
