<svg id="Vigilado_Superintendencia" data-name="Vigilado Superintendencia" xmlns="http://www.w3.org/2000/svg" xmlns:xlink="http://www.w3.org/1999/xlink" width="13" height="165.786" viewBox="0 0 13 165.786">
  <defs>
    <clipPath id="clip-path">
      <rect id="Rectangle_2360" data-name="Rectangle 2360" width="13" height="165.786"/>
    </clipPath>
  </defs>
  <g id="Group_4446" data-name="Group 4446">
    <path id="Path_6021" data-name="Path 6021" d="M4.644,185.519v-1.14L9.4,186.16v1.057l-4.76,1.773v-1.181l3.611-1.133v-.009Z" transform="translate(-0.321 -26.132)"/>
    <rect id="Rectangle_2353" data-name="Rectangle 2353" width="4.76" height="1.105" transform="translate(4.323 154.772)"/>
    <g id="Group_4418" data-name="Group 4418">
      <g id="Group_4417" data-name="Group 4417" clip-path="url(#clip-path)">
        <path id="Path_6022" data-name="Path 6022" d="M7.138,172.2v-2.525h2.936v.85l-.681.126a2.33,2.33,0,0,1,.828,1.88A2.663,2.663,0,0,1,7.357,175.3a2.727,2.727,0,0,1-2.883-2.945c0-1.854,1.086-2.587,1.837-2.663v1.284a1.278,1.278,0,0,0-.9,1.313,1.714,1.714,0,0,0,1.965,1.734,1.627,1.627,0,0,0,1.864-1.76,1.46,1.46,0,0,0-1.19-1.474V172.2Z" transform="translate(-0.661 -25.063)"/>
        <rect id="Rectangle_2354" data-name="Rectangle 2354" width="5.456" height="1.256" transform="translate(3.958 140.262)"/>
        <path id="Path_6023" data-name="Path 6023" d="M9.1,158.825v-3h1v4.246H4.644v-1.242Z" transform="translate(-0.686 -23.016)"/>
        <path id="Path_6024" data-name="Path 6024" d="M8.027,149.907v-1.539l-2.158.749v.014Zm2.073.746v1.327l-5.456-2.149v-1.449l5.456-2.138v1.388l-1.123.382v2.227Z" transform="translate(-0.686 -21.602)"/>
        <path id="Path_6025" data-name="Path 6025" d="M9.166,140.818V139.6c0-1.026-.948-1.364-1.841-1.364-1.619,0-1.741.837-1.741,1.388v1.2Zm-4.522,1.24V139.39a2.33,2.33,0,0,1,2.591-2.451c1.183,0,2.865.516,2.865,2.506v2.613Z" transform="translate(-0.686 -20.227)"/>
        <path id="Path_6026" data-name="Path 6026" d="M9.237,129.854c0-.669-.366-1.613-1.885-1.613-1.542,0-1.915.944-1.915,1.613,0,.692.373,1.646,1.915,1.646,1.52,0,1.885-.954,1.885-1.646m-4.763,0a2.7,2.7,0,0,1,2.877-2.887,2.9,2.9,0,0,1,0,5.8,2.709,2.709,0,0,1-2.877-2.911" transform="translate(-0.661 -18.754)"/>
        <path id="Path_6027" data-name="Path 6027" d="M13,184.026H11.965V123.484H13Zm-11.966,0H0V123.484H1.034Z" transform="translate(0 -18.24)"/>
        <path id="Path_6028" data-name="Path 6028" d="M4.587,118.4c.209-.011.6-.109.6-.857,0-.385-.089-.835-.481-.835-.269,0-.351.289-.446.739l-.095.412c-.124.658-.264,1.29-1.065,1.29-.4,0-1.109-.236-1.109-1.545,0-1.246.716-1.564,1.162-1.569v.816c-.153.008-.545.074-.545.818,0,.319.1.686.435.686.284,0,.345-.245.372-.418l.24-.989c.113-.546.308-1.036.964-1.036,1.1,0,1.193,1.221,1.193,1.586,0,1.457-.763,1.712-1.225,1.712Z" transform="translate(-0.294 -17.122)"/>
        <path id="Path_6029" data-name="Path 6029" d="M4.457,110.971c.961,0,1.37.643,1.37,1.665a1.778,1.778,0,0,1-.447,1.277,1.274,1.274,0,0,1-.862.316H2.094v-.859H4.457a.67.67,0,0,0,.717-.726c0-.581-.236-.8-.681-.8h-2.4v-.875Z" transform="translate(-0.309 -16.391)"/>
        <path id="Path_6030" data-name="Path 6030" d="M3.782,107.467c0-.625-.407-.625-.567-.625-.355,0-.493.22-.493.734v.672H3.782Zm1.947.781v.836H2.094v-1.841a1.11,1.11,0,0,1,1.166-1.236,1.165,1.165,0,0,1,1.157,1.272v.968Z" transform="translate(-0.309 -15.658)"/>
        <path id="Path_6031" data-name="Path 6031" d="M2.73,101.356v2.128H3.5v-1.953h.645v1.953h.938v-2.22H5.73v3.044H2.094v-2.952Z" transform="translate(-0.309 -14.958)"/>
        <path id="Path_6032" data-name="Path 6032" d="M3.7,97.663c0-.436-.13-.635-.493-.635-.193,0-.479.093-.479.586v1.035H3.7ZM2.09,99.47V97.433c0-1.067.716-1.262,1.025-1.262a.865.865,0,0,1,.866.629c.141-.329.245-.506.926-.506.536,0,.672,0,.736-.187h.086v.937a2.523,2.523,0,0,1-.745.078c-.488,0-.678.044-.678.656v.872H5.729v.821Z" transform="translate(-0.309 -14.196)"/>
        <rect id="Rectangle_2355" data-name="Rectangle 2355" width="3.639" height="0.851" transform="translate(1.781 80.122)"/>
        <path id="Path_6033" data-name="Path 6033" d="M2.09,89.691v-.778H5.729v.827L3.135,91.382H5.729v.793H2.09v-.887l2.538-1.6Z" transform="translate(-0.309 -13.133)"/>
        <path id="Path_6034" data-name="Path 6034" d="M5.73,85.339v.834H2.724v1.234h-.63V84.132h.63v1.208Z" transform="translate(-0.309 -12.427)"/>
        <path id="Path_6035" data-name="Path 6035" d="M2.73,79.665v2.119H3.5V79.829h.645v1.954h.938V79.567H5.73v3.048H2.094V79.665Z" transform="translate(-0.309 -11.753)"/>
        <path id="Path_6036" data-name="Path 6036" d="M2.09,75.358v-.779H5.729v.835L3.135,77.041v.014H5.729v.79H2.09v-.88l2.538-1.6v-.01Z" transform="translate(-0.309 -11.016)"/>
        <path id="Path_6037" data-name="Path 6037" d="M5.1,71.808v-.816c0-.689-.628-.915-1.23-.915-1.066,0-1.149.58-1.149.932v.8Zm-3.012.83V70.86a1.561,1.561,0,0,1,1.731-1.636A1.694,1.694,0,0,1,5.729,70.89v1.748Z" transform="translate(-0.309 -10.225)"/>
        <path id="Path_6038" data-name="Path 6038" d="M2.73,64.6V66.74H3.5V64.77h.645v1.97h.938V64.51H5.73v3.049H2.094V64.6Z" transform="translate(-0.309 -9.529)"/>
        <path id="Path_6039" data-name="Path 6039" d="M2.09,60.293v-.776H5.729v.838l-2.594,1.64v.016H5.729v.779H2.09v-.884l2.538-1.6v-.017Z" transform="translate(-0.309 -8.791)"/>
        <path id="Path_6040" data-name="Path 6040" d="M3.263,55.014a.821.821,0,0,0-.632.884c0,.406.249,1.009,1.282,1.009.649,0,1.243-.29,1.243-1.009a.838.838,0,0,0-.689-.884v-.838a1.642,1.642,0,0,1,1.348,1.743A1.734,1.734,0,0,1,3.9,57.758a1.752,1.752,0,0,1-1.917-1.85,1.546,1.546,0,0,1,1.281-1.732Z" transform="translate(-0.293 -8.002)"/>
        <rect id="Rectangle_2356" data-name="Rectangle 2356" width="3.639" height="0.84" transform="translate(1.781 44.427)"/>
        <path id="Path_6041" data-name="Path 6041" d="M4.364,49.116V48.09L2.916,48.6v.005Zm1.366.511V50.5L2.094,49.083v-.973L5.73,46.691v.923l-.753.244v1.493Z" transform="translate(-0.309 -6.897)"/>
        <path id="Path_6042" data-name="Path 6042" d="M5.73,42.105v.857H2.094V40.091h.63v2.014h.84V40.343H4.2v1.763Z" transform="translate(-0.309 -5.922)"/>
        <rect id="Rectangle_2357" data-name="Rectangle 2357" width="3.639" height="0.847" transform="translate(1.781 32.492)"/>
        <path id="Path_6043" data-name="Path 6043" d="M2.09,33.793v-.776H5.729v.841L3.135,35.5v.025H5.729V36.3H2.09v-.9l2.538-1.588v-.016Z" transform="translate(-0.309 -4.877)"/>
        <path id="Path_6044" data-name="Path 6044" d="M4.364,29.988V28.966l-1.448.5ZM5.73,30.5v.867L2.094,29.954v-.98L5.73,27.568v.9l-.753.261v1.48Z" transform="translate(-0.309 -4.072)"/>
        <path id="Path_6045" data-name="Path 6045" d="M2.09,23.513v-.792H5.729v.842L3.135,25.22H5.729v.786H2.09v-.889l2.538-1.589v-.015Z" transform="translate(-0.309 -3.356)"/>
        <path id="Path_6046" data-name="Path 6046" d="M3.263,18.24a.809.809,0,0,0-.632.884c0,.411.249.99,1.282.99.649,0,1.243-.272,1.243-.99a.829.829,0,0,0-.689-.884v-.854a1.673,1.673,0,0,1,1.348,1.753A1.736,1.736,0,0,1,3.9,20.973a1.751,1.751,0,0,1-1.917-1.849,1.568,1.568,0,0,1,1.281-1.738Z" transform="translate(-0.293 -2.568)"/>
        <rect id="Rectangle_2358" data-name="Rectangle 2358" width="3.639" height="0.834" transform="translate(1.781 13.084)"/>
        <path id="Path_6047" data-name="Path 6047" d="M2.73,10.533v2.146H3.5V10.714h.645v1.965h.938V10.46H5.73v3.056H2.094V10.533Z" transform="translate(-0.309 -1.545)"/>
        <path id="Path_6048" data-name="Path 6048" d="M3.7,6.864c0-.431-.13-.651-.493-.651-.193,0-.479.089-.479.595V7.839H3.7ZM2.09,8.676V6.635c0-1.069.716-1.261,1.025-1.261A.846.846,0,0,1,3.981,6c.141-.335.245-.511.926-.511.536,0,.672,0,.736-.188h.086V6.23a1.941,1.941,0,0,1-.745.089c-.488,0-.678.043-.678.659v.861H5.729v.838Z" transform="translate(-0.309 -0.783)"/>
        <path id="Path_6049" data-name="Path 6049" d="M4.364,2.438V1.4l-1.448.5v.015Zm1.366.5v.882L2.094,2.39V1.426L5.73,0V.914l-.753.248v1.5Z" transform="translate(-0.309)"/>
        <path id="Path_6050" data-name="Path 6050" d="M11.8,83.371v-.81c0-.695-.632-.907-1.234-.907-1.066,0-1.149.557-1.149.907v.81Zm-3.02.822V82.41a1.565,1.565,0,0,1,1.734-1.631,1.686,1.686,0,0,1,1.9,1.679v1.735Z" transform="translate(-1.297 -11.932)"/>
        <path id="Path_6051" data-name="Path 6051" d="M9.427,76.164V78.31h.759V76.34h.652v1.97h.951V76.077h.629v3.041H8.783V76.164Z" transform="translate(-1.297 -11.237)"/>
        <path id="Path_6052" data-name="Path 6052" d="M9.953,69.5a.806.806,0,0,0-.616.9c0,.388.243.972,1.265.972.655,0,1.24-.27,1.24-.972a.843.843,0,0,0-.683-.9v-.828A1.627,1.627,0,0,1,12.5,70.4a1.733,1.733,0,0,1-1.911,1.835A1.748,1.748,0,0,1,8.667,70.4c0-1.218.752-1.7,1.286-1.734Z" transform="translate(-1.28 -10.143)"/>
        <path id="Path_6053" data-name="Path 6053" d="M11.852,65.117c0-.454-.245-1.086-1.269-1.086s-1.273.632-1.273,1.086.261,1.094,1.273,1.094,1.269-.64,1.269-1.094m-3.185,0a1.8,1.8,0,0,1,1.916-1.933,1.935,1.935,0,0,1,0,3.869,1.8,1.8,0,0,1-1.916-1.936" transform="translate(-1.28 -9.333)"/>
        <path id="Path_6054" data-name="Path 6054" d="M11.771,60.666V58.68h.641v2.844H8.777v-.858Z" transform="translate(-1.296 -8.668)"/>
        <path id="Path_6055" data-name="Path 6055" d="M11.852,55.2c0-.449-.245-1.088-1.269-1.088S9.31,54.753,9.31,55.2s.261,1.09,1.273,1.09,1.269-.64,1.269-1.09m-3.185,0a1.793,1.793,0,0,1,1.916-1.924,1.93,1.93,0,0,1,0,3.86A1.8,1.8,0,0,1,8.667,55.2" transform="translate(-1.28 -7.87)"/>
        <path id="Path_6056" data-name="Path 6056" d="M12.417,47.562v.793H9.385l3.032.755v.811l-3.032.746v.009h3.032v.776H8.783V50.237l2.87-.729v-.02l-2.87-.717V47.562Z" transform="translate(-1.297 -7.025)"/>
        <path id="Path_6057" data-name="Path 6057" d="M11.8,44.829V43.812c0-.413-.165-.645-.538-.645-.309,0-.447.286-.447.59v1.072Zm-1.595,0v-.982c0-.326-.114-.6-.4-.6-.309,0-.391.245-.391.628v.956Zm-1.425.821V43.675c0-.972.568-1.232.938-1.232a.73.73,0,0,1,.744.5.849.849,0,0,1,.885-.637.994.994,0,0,1,.744.362c.216.233.323.437.323,1.262V45.65Z" transform="translate(-1.297 -6.249)"/>
        <rect id="Rectangle_2359" data-name="Rectangle 2359" width="3.634" height="0.847" transform="translate(7.486 34.237)"/>
        <path id="Path_6058" data-name="Path 6058" d="M11.048,37.171V36.154l-1.449.5Zm1.37.5v.889L8.783,37.137v-.984l3.634-1.41v.909l-.751.259V37.4Z" transform="translate(-1.297 -5.132)"/>
      </g>
    </g>
  </g>
</svg>
